@startuml MultiParagraphs

'******* CONFIGURATION ************************************************
!include style.uml.inc


'******* CLASS DEFINITION *********************************************
class ParagraphsBlock{
}

class QuoteBlock{
    +source: ReferenceToCitationElement[0..1]
    +author: String | <<Bibliography>> Contributor[0..1]
}

class ReviewBlock{
    +reviewer: String[0..1]
    +date: DateTime[0..1]
    +appliesFrom: IdElement
    +appliesTo: IdElement[0..1]
}

class AdmonitionBlock{
    +type: AdmonitionType
    +name: TextElement[0..*]
    +class: String[0..1]
    +uri: Uri[0..1]
}

enum AdmonitionType <<enumeration>>{
    warning
    note
    tip
    important
    caution
    statement
}



'******* NOTES *******************************************************
'note bottom of QuoteBlock : QuoteBlock: author is properly derived from\nthe Citation, and is redundant here: it is for\ndisplay only

'******* CLASS RELATIONS *********************************************
ParagraphsBlock <|-down- QuoteBlock
ParagraphsBlock <|-down- ReviewBlock
ParagraphsBlock <|-down- AdmonitionBlock

AdmonitionBlock <-down- AdmonitionType

@enduml
